PathFileType	4	(X/Y/Z)	/Users/niels/Desktop/University/Third Semester/Perception and Action/Exam/Gymnastics Motion Tracking/Code for Gym Tracking/Analyzed Data/Webcam_Backflip/id10_2_trajectory_Sports2D/id10_2_trajectory_Sports2D_px_person00.trc
DataRate	CameraRate	NumFrames	NumMarkers	Units	OrigDataRate	OrigDataStartFrame	OrigNumFrames
29.714285714285715	29.714285714285715	8	22	m	29.714285714285715	13	105
Frame#	Time	Hip			RHip			RKnee			RAnkle			RBigToe			RSmallToe			RHeel			LHip			LKnee			LAnkle			LBigToe			LSmallToe			LHeel			Neck			Head			Nose			RShoulder			RElbow			RWrist			LShoulder			LElbow			LWrist		
		X1	Y1	Z1	X2	Y2	Z2	X3	Y3	Z3	X4	Y4	Z4	X5	Y5	Z5	X6	Y6	Z6	X7	Y7	Z7	X8	Y8	Z8	X9	Y9	Z9	X10	Y10	Z10	X11	Y11	Z11	X12	Y12	Z12	X13	Y13	Z13	X14	Y14	Z14	X15	Y15	Z15	X16	Y16	Z16	X17	Y17	Z17	X18	Y18	Z18	X19	Y19	Z19	X20	Y20	Z20	X21	Y21	Z21	X22	Y22	Z22
13	0.4375	0.8741577667217115	-0.6508632981376302	0.0	0.8696648611479859	-0.6559638594835856	0.0	1.0090076888302955	-0.8408114432610979	0.0	0.8974470986316081	-1.0423402965953363	0.0	1.0043964179516927	-1.0758491629214586	0.0	0.9757777479802295	-1.089136871960989	0.0	0.8685593358586449	-1.0645104367219254	0.0	0.8963988176416756	-0.6522117642555242	0.0	1.0137746479829055	-0.8332471008793357	0.0	0.9118914619170735	-1.0255544492829416	0.0	1.0164976475699699	-1.0586730526039287	0.0	1.0038158523074903	-1.0533631914574104	0.0	0.8727401551024473	-1.0531737081003119	0.0	1.0045952679708008	-0.37807579454629686	0.0	1.0667474782967787	-0.24793874411174704	0.0	1.0861959893948834	-0.32524863484444405	0.0	0.9840234686205498	-0.4129079114056844	0.0	1.005023720484702	-0.5316205520492457	0.0	1.040627918018259	-0.6099132587741884	0.0	0.976149618118738	-0.40964881425235355	0.0	1.0039604301152663	-0.5214693317160095	0.0	1.0355546438497218	-0.5857322644268484	0.0
14	0.47115384615384615	0.8800112827378682	-0.6434712750591299	0.0	0.877138977162618	-0.6493425388933848	0.0	1.0097910126923562	-0.8383218075388377	0.0	0.8993393208892472	-1.039201924866905	0.0	1.0033886016540745	-1.0748511262021305	0.0	0.9759391072814941	-1.0870906083665421	0.0	0.8704141724590299	-1.0617590657710794	0.0	0.9003323574170676	-0.6453632095585581	0.0	1.0123014311043292	-0.8307623752996377	0.0	0.9128635456959954	-1.0220106624372172	0.0	1.0141580397910783	-1.0551584127819373	0.0	1.0005356801970622	-1.050385365432079	0.0	0.8737664690897716	-1.0491182674888504	0.0	0.9914467780139293	-0.3629727572596695	0.0	1.0466110212677064	-0.23023237297328522	0.0	1.0691226412000503	-0.307549030904076	0.0	0.9775285857034219	-0.3978622949062235	0.0	1.046875439307347	-0.49257282950265463	0.0	1.1097538775415232	-0.5371809850847361	0.0	0.9612095069690263	-0.39383940927196415	0.0	1.0381877096774899	-0.4851494585844078	0.0	1.1002147521812793	-0.5204561879509292	0.0
15	0.5048076923076923	0.8869908262004464	-0.6263687279329296	0.0	0.8860599316143618	-0.6325727381842662	0.0	1.004495092564804	-0.829229424578148	0.0	0.902222814229833	-1.0330575051653874	0.0	1.0017334413958237	-1.0720805045378894	0.0	0.9761060606815148	-1.0829339489828078	0.0	0.8737924971123335	-1.0564235033373743	0.0	0.901555510424551	-0.6285245454083664	0.0	1.0039672188713502	-0.8216595199280119	0.0	0.9132713123564887	-1.0153843322003535	0.0	1.0102322146899307	-1.0490161094714645	0.0	0.995612975968498	-1.0449853410368803	0.0	0.8754386991899192	-1.0420286260477896	0.0	0.9809658144155429	-0.33992103887742814	0.0	1.0309651360762735	-0.20621384880457863	0.0	1.055277084951445	-0.28288974156061414	0.0	0.9742628828290132	-0.37201213593342874	0.0	1.080480262080896	-0.4286466515116559	0.0	1.1568635258013906	-0.43329610648171524	0.0	0.9467132189804979	-0.3684583672821818	0.0	1.0591690161543756	-0.4309484092420898	0.0	1.1421256857895792	-0.4300303980413508	0.0
16	0.5384615384615384	0.8950007577466849	-0.5995237158961282	0.0	0.8959388938347222	-0.6055254569971177	0.0	0.99364819698219	-0.8124480529058125	0.0	0.9064617936876854	-1.0223468523486083	0.0	0.9994244334173952	-1.0665002431531623	0.0	0.9759842407088369	-1.0756845056274331	0.0	0.8792129501018188	-1.0468474591853234	0.0	0.901333764482757	-0.6014376409376234	0.0	0.9897156067463865	-0.8045712198225441	0.0	0.9136117813205009	-1.0039746804167735	0.0	1.005234682031101	-1.0401539701822284	0.0	0.9897078069998452	-1.036516665238533	0.0	0.8779957811324011	-1.0305878779671884	0.0	0.9739280665865291	-0.308871063534597	0.0	1.021025539185345	-0.17687445182469622	0.0	1.0454117721314873	-0.25156276909804226	0.0	0.9732737779799914	-0.3358063655005939	0.0	1.1012817531005892	-0.3483134699811244	0.0	1.1786006192636493	-0.3158542266348939	0.0	0.9348257257948803	-0.33451402859610174	0.0	1.063589096636276	-0.37019790913190925	0.0	1.1580617170462042	-0.33203897734854865	0.0
17	0.5721153846153846	0.9037259185647432	-0.5645140382682491	0.0	0.9060336006954113	-0.5696380234231494	0.0	0.979101735130726	-0.7879663439109266	0.0	0.9120129960443781	-1.0057246066694892	0.0	0.996712111039734	-1.0566750731336434	0.0	0.97553028653227	-1.0640662672058858	0.0	0.8865013532292777	-1.0314935671219894	0.0	0.9018591334087681	-0.5656131889723663	0.0	0.9725747471944158	-0.7792472157383596	0.0	0.91431956389303	-0.9862303097010663	0.0	1.0000908091151164	-1.0279841423508917	0.0	0.9838834975662951	-1.0237961864426066	0.0	0.8816114324375182	-1.0135508918970981	0.0	0.9700259041012055	-0.27091530182925794	0.0	1.0166649808994304	-0.14421499363456147	0.0	1.0392291900308788	-0.21511049773181193	0.0	0.9725130665975756	-0.29137951360757036	0.0	1.107755018373832	-0.2624292776007452	0.0	1.1757368764725584	-0.20337496228207552	0.0	0.927016325813633	-0.2942527035648102	0.0	1.051301372969727	-0.3160080618375536	0.0	1.1488319778583462	-0.24499949723899767	0.0
18	0.6057692307692307	0.9125550327439502	-0.5244411032614862	0.0	0.9156197259826933	-0.5278355475521712	0.0	0.9637812452346192	-0.7574694194035455	0.0	0.9180157335498056	-0.9828296323463948	0.0	0.9940566930519774	-1.041418981338311	0.0	0.9749877675467653	-1.047170975042508	0.0	0.8943224577129256	-1.0098285561589218	0.0	0.9045889256855988	-0.5241615274574072	0.0	0.956345354249771	-0.7473877834276318	0.0	0.9154551814353256	-0.9616470388278427	0.0	0.995769190881791	-1.011482670624838	0.0	0.9792644577374914	-1.005578019242429	0.0	0.8857720580074658	-0.9903982795782151	0.0	0.9682995663513744	-0.22862630143961266	0.0	1.0167152967521382	-0.11098347878381153	0.0	1.035991944457915	-0.17637589757872763	0.0	0.9704101290769073	-0.2426425095439877	0.0	1.1019160650227675	-0.18135064929105135	0.0	1.1543352706709464	-0.11011579036458631	0.0	0.9233958452813329	-0.25103131043625354	0.0	1.0270322492374457	-0.2770819526526874	0.0	1.1207985835777763	-0.18218284795531764	0.0
19	0.6394230769230769	0.9207106252039214	-0.4831289254094663	0.0	0.9241849134852697	-0.4838488026146002	0.0	0.9507255827154648	-0.7242051904239166	0.0	0.9230133107634124	-0.954841483250896	0.0	0.9918407058216874	-1.020892576403836	0.0	0.9745106484809717	-1.0253827651501768	0.0	0.9005781439343011	-0.982793389807498	0.0	0.9093797265343895	-0.480979150735103	0.0	0.9439689131033576	-0.712534862995726	0.0	0.916622691421919	-0.931573450702467	0.0	0.9927050752629222	-0.9900948555074045	0.0	0.97619703155861	-0.9815962374863326	0.0	0.8892163558771778	-0.961858955411272	0.0	0.9677504286809817	-0.18579242055733083	0.0	1.0195496204853807	-0.08003054905580145	0.0	1.0349531126917333	-0.13889602790819155	0.0	0.9669480306106942	-0.19437439956389754	0.0	1.0880666832723873	-0.1133271063880338	0.0	1.124036697620686	-0.04353146926464778	0.0	0.9228943778700347	-0.20861848765841787	0.0	0.9998128984813153	-0.2533027265140657	0.0	1.084703181315419	-0.14738667655474263	0.0
20	0.673076923076923	0.9275450843349873	-0.4441997159701776	0.0	0.9315600176664245	-0.4415645476911809	0.0	0.9418152120858184	-0.6920839935128549	0.0	0.9258219548567932	-0.9244835197055636	0.0	0.990156145496142	-0.9971283928189345	0.0	0.9739635170847418	-1.0007383890802348	0.0	0.9036982331047094	-0.9528157182332642	0.0	0.9151025173311652	-0.44002517133954566	0.0	0.9366244222834371	-0.6789572631003767	0.0	0.9171878398220993	-0.8992246019106476	0.0	0.9906062318323122	-0.9648806153843885	0.0	0.973943946755875	-0.9535424008058461	0.0	0.8907474052681593	-0.9302595547980682	0.0	0.9676141419782954	-0.1466642313489449	0.0	1.0235305012145681	-0.053800691962555276	0.0	1.0352895070798345	-0.10623629753076454	0.0	0.9634893406955916	-0.15100799214323601	0.0	1.0710419201369488	-0.06354424615450657	0.0	1.0936981103913117	-0.004149633189614829	0.0	0.9237867852617727	-0.17040360535900323	0.0	0.978121973153788	-0.2383910864170901	0.0	1.0509076780397555	-0.13379962749158994	0.0
